<?xml version="1.0" standalone="no"?>
<!DOCTYPE svg PUBLIC "-//W3C//DTD SVG 20010904//EN"
 "http://www.w3.org/TR/2001/REC-SVG-20010904/DTD/svg10.dtd">
<svg version="1.0" xmlns="http://www.w3.org/2000/svg"
 width="640.000000pt" height="1280.000000pt" viewBox="0 0 640.000000 1280.000000"
 preserveAspectRatio="xMidYMid meet">
<metadata>
Created by potrace 1.15, written by Peter Selinger 2001-2017
</metadata>
<g transform="translate(0.000000,1280.000000) scale(0.100000,-0.100000)"
fill="#000000" stroke="none">
<path d="M2500 12794 c-57 -11 -158 -47 -200 -71 -116 -67 -275 -219 -338
-325 -59 -99 -76 -161 -76 -278 0 -118 13 -176 116 -515 33 -110 64 -212 68
-227 8 -26 2 -31 -206 -168 -254 -167 -323 -229 -417 -370 -165 -251 -273
-550 -308 -860 -16 -147 -7 -241 56 -563 31 -155 74 -374 96 -487 81 -413 118
-547 231 -834 38 -98 72 -193 75 -210 3 -19 -3 -52 -16 -84 -33 -84 -59 -194
-70 -299 -18 -164 -34 -798 -36 -1368 -1 -506 -11 -803 -45 -1333 -23 -365
-84 -617 -219 -910 -62 -134 -80 -182 -105 -278 -31 -123 -93 -527 -246 -1609
-134 -947 -131 -929 -190 -1058 -29 -62 -58 -146 -70 -198 -32 -150 -83 -220
-197 -274 -29 -14 -63 -40 -77 -58 -40 -52 -76 -128 -76 -158 0 -24 8 -32 62
-58 35 -16 97 -37 138 -46 114 -25 385 -30 635 -11 197 15 211 17 233 40 26
26 51 128 72 292 15 118 25 148 61 179 26 21 40 25 99 25 121 0 102 -47 257
646 289 1295 312 1405 433 2099 97 561 174 912 275 1260 77 267 122 475 150
695 9 69 27 156 40 194 21 62 116 231 164 294 l17 24 80 -60 c92 -68 206 -189
274 -293 58 -86 52 -44 85 -609 14 -234 36 -621 50 -860 14 -239 39 -658 55
-930 82 -1372 150 -2548 150 -2599 0 -26 -4 -29 -42 -35 -58 -9 -313 -93 -369
-122 -63 -31 -99 -76 -99 -122 0 -81 80 -180 188 -230 53 -25 67 -27 182 -26
105 0 145 6 252 32 173 43 247 49 342 27 73 -17 76 -17 113 2 99 52 124 248
41 332 -44 45 -104 64 -186 59 -82 -4 -130 -32 -177 -103 -16 -24 -33 -45 -38
-45 -19 0 -26 68 -41 390 -9 190 -21 431 -27 535 -40 735 -198 3879 -195 3882
6 6 126 -139 173 -210 96 -143 130 -258 144 -487 12 -184 31 -372 118 -1150
163 -1445 263 -2309 272 -2342 16 -61 52 -93 175 -154 118 -59 173 -105 175
-147 1 -12 1 -108 -1 -214 l-2 -192 27 -7 c38 -9 1421 25 1466 37 55 14 74 41
73 106 -3 128 -68 204 -206 244 -108 30 -205 95 -329 219 -147 147 -226 291
-270 494 -36 161 -69 416 -79 601 -31 551 -21 477 -260 1860 -133 772 -157
935 -209 1445 -78 757 -126 1097 -197 1410 -36 161 -72 343 -119 610 -34 197
-64 325 -110 470 -54 171 -67 243 -68 365 -1 120 16 202 63 315 15 36 31 82
34 102 9 47 48 95 85 103 42 9 54 28 99 150 173 475 254 1052 223 1585 -19
322 -62 641 -100 753 -52 149 -148 260 -283 326 -104 51 -139 60 -478 121
-306 55 -331 61 -378 90 -40 24 -38 20 -113 294 -101 369 -157 508 -256 631
-79 97 -230 184 -398 229 -60 17 -248 29 -295 20z"/>
</g>
</svg>
